# xmcd
#
# Track frame offsets:
#	150
#	17762
#	32354
#	46468
#	63619
#	78462
#	94084
#	110383
#	128502
#	148398
#	161292
#	176577
#	191136
#
# Disc length: 2758 seconds
#
# Revision: 0
# Processed by: cddbd v1.5.2PL0 Copyright (c) Steve Scherf et al.
# Submitted via: EasyCDDAExtractor 12.0.0.1
#
DISCID=ab0ac40d
DTITLE=Edson and Hudson
DYEAR=1900
DGENRE=Sertanejo
TTITLE0=Porque chora a tarde
TTITLE1=Bye Bye tristeza
TTITLE2=Azul
TTITLE3=Jura
TTITLE4=Ja sofri, ja chorei
TTITLE5=Volta
TTITLE6=Mil razões para chorar
TTITLE7=Anjo
TTITLE8=Voce e tudo que eu preciso
TTITLE9=Te dar tristeza nunca mais
TTITLE10=Quer namorar comigo?
TTITLE11=Te quero pra mim
TTITLE12=Porque voce me olha assim?
EXTD=
EXTT0=
EXTT1=
EXTT2=
EXTT3=
EXTT4=
EXTT5=
EXTT6=
EXTT7=
EXTT8=
EXTT9=
EXTT10=
EXTT11=
EXTT12=
PLAYORDER=
